# xmcd
#
# Track frame offsets: 
#        150
#        34287
#        55815
#        80497
#        104435
#        124285
#        161770
#        191920
#        209347
#        232360
#
# Disc length: 3369 seconds
#
# Revision: 1
# Processed by: cddbd v1.5.2PL0 Copyright (c) Steve Scherf et al.
# Submitted via: ExactAudioCopy v1.0b3
#
DISCID=970d270a
DTITLE=Four Fried Fish and Flyin Horns - Catfish For Breakfast
DYEAR=2008
DGENRE=Blues
TTITLE0=So Long
TTITLE1=Homeway Blues
TTITLE2=Blues For Mr.G
TTITLE3=Rollin' Stone
TTITLE4=Making Love
TTITLE5=Honey and Bread
TTITLE6=H5N1
TTITLE7=Three Cool Cats
TTITLE8=Monkey Blues
TTITLE9=Maybe a Man
EXTD=
EXTT0=
EXTT1=
EXTT2=
EXTT3=
EXTT4=
EXTT5=
EXTT6=
EXTT7=
EXTT8=
EXTT9=
PLAYORDER=
